<svg viewBox="0 0 32 32" xmlns="http://www.w3.org/2000/svg" fill-rule="evenodd" clip-rule="evenodd" stroke-linejoin="round" stroke-miterlimit="2"><path d="M17.805.102a15.968 15.968 0 00-3.61 0 8.609 8.609 0 01-.702 2.53c-1.15.217-2.265.58-3.322 1.08a8.607 8.607 0 01-2.055-1.635A16.014 16.014 0 005.195 4.2a8.61 8.61 0 01.92 2.46A13.63 13.63 0 004.06 9.485a8.584 8.584 0 01-2.623-.117 16.08 16.08 0 00-1.116 3.435 8.644 8.644 0 012.191 1.449 13.523 13.523 0 000 3.494 8.605 8.605 0 01-2.191 1.448 16.031 16.031 0 001.116 3.434 8.625 8.625 0 012.623-.115 13.586 13.586 0 002.054 2.826 8.604 8.604 0 01-.92 2.46c.89.816 1.87 1.528 2.921 2.123a8.574 8.574 0 012.055-1.636c1.057.501 2.173.865 3.322 1.08.363.808.597 1.651.701 2.531 1.2.135 2.412.135 3.611 0 .105-.88.338-1.723.702-2.53 1.149-.216 2.265-.58 3.322-1.08.769.44 1.454.984 2.054 1.635a16.014 16.014 0 002.922-2.122 8.604 8.604 0 01-.92-2.46 13.586 13.586 0 002.053-2.827 8.625 8.625 0 012.624.115c.5-1.098.875-2.25 1.116-3.434a8.605 8.605 0 01-2.191-1.448c.15-1.16.15-2.334 0-3.494a8.644 8.644 0 012.191-1.449 16.08 16.08 0 00-1.116-3.435 8.584 8.584 0 01-2.624.117 13.63 13.63 0 00-2.053-2.828 8.61 8.61 0 01.92-2.459 16.014 16.014 0 00-2.922-2.122 8.607 8.607 0 01-2.054 1.636 13.627 13.627 0 00-3.322-1.08 8.609 8.609 0 01-.702-2.531zM16 5.147c5.99 0 10.853 4.863 10.853 10.853 0 5.99-4.863 10.853-10.853 10.853-5.99 0-10.853-4.864-10.853-10.853C5.147 10.01 10.01 5.147 16 5.147z" fill="inherit"/></svg>
